<?xml version="1.0" encoding="UTF-8" standalone="no"?>
<!-- Created with Inkscape (http://www.inkscape.org/) -->

<svg
   xmlns:dc="http://purl.org/dc/elements/1.1/"
   xmlns:cc="http://creativecommons.org/ns#"
   xmlns:rdf="http://www.w3.org/1999/02/22-rdf-syntax-ns#"
   xmlns:svg="http://www.w3.org/2000/svg"
   xmlns="http://www.w3.org/2000/svg"
   xmlns:xlink="http://www.w3.org/1999/xlink"
   xmlns:sodipodi="http://sodipodi.sourceforge.net/DTD/sodipodi-0.dtd"
   xmlns:inkscape="http://www.inkscape.org/namespaces/inkscape"
   width="355.63898mm"
   height="595.81683mm"
   viewBox="0 0 1260.1381 2111.162"
   id="svg4910"
   version="1.1"
   inkscape:version="0.91 r13725"
   sodipodi:docname="background.svg">
  <defs
     id="defs4912">
    <linearGradient
       inkscape:collect="always"
       xlink:href="#linearGradient5341"
       id="linearGradient4876"
       gradientUnits="userSpaceOnUse"
       x1="194.28571"
       y1="1691.4286"
       x2="914.28571"
       y2="145.71429" />
    <linearGradient
       inkscape:collect="always"
       id="linearGradient5341">
      <stop
         style="stop-color:#51b5e4;stop-opacity:1"
         offset="0"
         id="stop5343" />
      <stop
         style="stop-color:#d79600;stop-opacity:1"
         offset="1"
         id="stop5345" />
    </linearGradient>
    <marker
       inkscape:stockid="Arrow2Lend"
       orient="auto"
       refY="0"
       refX="0"
       id="Arrow2Lend"
       style="overflow:visible"
       inkscape:isstock="true">
      <path
         inkscape:connector-curvature="0"
         id="path5830"
         style="fill:#51b5e4;fill-opacity:1;fill-rule:evenodd;stroke:none;stroke-width:0.625;stroke-linejoin:round;stroke-opacity:1"
         d="M 8.7185878,4.0337352 -2.2072895,0.01601326 8.7185884,-4.0017078 c -1.7454984,2.3720609 -1.7354408,5.6174519 -6e-7,8.035443 z"
         transform="matrix(-1.1,0,0,-1.1,-1.1,0)" />
    </marker>
  </defs>
  <sodipodi:namedview
     id="base"
     pagecolor="#ffffff"
     bordercolor="#666666"
     borderopacity="1.0"
     inkscape:pageopacity="0.0"
     inkscape:pageshadow="2"
     inkscape:zoom="0.175"
     inkscape:cx="843.25935"
     inkscape:cy="1285.1293"
     inkscape:document-units="px"
     inkscape:current-layer="layer1"
     showgrid="false"
     fit-margin-top="0"
     fit-margin-left="0"
     fit-margin-right="0"
     fit-margin-bottom="0"
     inkscape:window-width="1500"
     inkscape:window-height="937"
     inkscape:window-x="-8"
     inkscape:window-y="-8"
     inkscape:window-maximized="1" />
  <metadata
     id="metadata4915">
    <rdf:RDF>
      <cc:Work
         rdf:about="">
        <dc:format>image/svg+xml</dc:format>
        <dc:type
           rdf:resource="http://purl.org/dc/dcmitype/StillImage" />
        <dc:title></dc:title>
      </cc:Work>
    </rdf:RDF>
  </metadata>
  <g
     inkscape:label="Layer 1"
     inkscape:groupmode="layer"
     id="layer1"
     transform="translate(1721.4976,1271.7903)">
    <g
       transform="matrix(6.6666666,0,0,6.6666666,-861.35866,-684.49229)"
       id="g4839">
      <g
         id="g4841">
        <path
           inkscape:connector-curvature="0"
           style="opacity:0.14299999;fill:url(#linearGradient4876);fill-opacity:1;marker-start:url(#Arrow2Lend)"
           id="path4843"
           transform="matrix(0.15,0,0,0.15,-123.21428,-72.214291)"
           d="m 149.49219,-101.57422 c -16.17737,-0.16118 -31.0708,10.568497 -35.4375,26.865236 L 40.617188,199.35742 32.408203,197.1582 c -4.000865,-1.07203 -8.113518,1.30187 -9.185547,5.30274 l -2.847656,10.625 c -4.067341,15.17952 4.972819,30.83891 20.152344,34.90625 l 438.531246,117.5039 c 15.17953,4.06735 30.83696,-4.97282 34.9043,-20.15234 l 2.84766,-10.625 c 1.07203,-4.00086 -1.30383,-8.11352 -5.30469,-9.18555 l -8.20898,-2.20117 73.43554,-274.066405 C 581.90777,29.950972 570.35995,10.014317 550.99023,4.8242188 L 158.55273,-100.33008 c -3.02515,-0.81059 -6.06473,-1.21429 -9.06054,-1.24414 z m -0.14453,15.001954 c 1.75942,0.01823 3.54541,0.256317 5.32226,0.732422 L 547.10742,19.3125 c 11.38054,3.049406 18.17137,14.744833 15.13672,26.070312 L 488.80664,319.45117 55.107422,203.24023 128.54297,-70.826172 c 2.56049,-9.555874 11.30381,-15.844535 20.80469,-15.746094 z M 1004.4512,-70.314453 725.74609,4.3652344 C 714.8308,7.2900123 705.59787,14.769421 700.4082,24.894531 c -5.09669,9.96407 -5.78812,21.66035 -1.94726,32.15625 l -0.17774,0.04687 92.56055,345.437499 c 5.25589,19.61507 25.49233,31.29886 45.10742,26.04296 L 1117.8867,353.0332 1025.248,7.2988281 1021.4668,-6.8125 1004.4512,-70.314453 Z m -853.38089,1.457031 c -3.19472,0.12709 -6.07233,2.305938 -6.94336,5.556641 L 77.869141,183.97461 c -1.072029,4.00086 1.301869,8.11352 5.302734,9.18555 L 469.54297,296.68945 c 4.00086,1.07203 8.11352,-1.30382 9.18555,-5.30468 L 544.98633,44.107422 c 1.07203,-4.000865 -1.30382,-8.113518 -5.30469,-9.185547 L 153.3125,-68.605469 c -0.75016,-0.201005 -1.50494,-0.281281 -2.24219,-0.251953 z m 843.05078,16.435547 1.89063,7.056641 -35.2793,9.453125 c -3.90185,1.045504 -6.21151,5.043461 -5.16601,8.945312 1.04549,3.901851 5.04541,6.21152 8.94726,5.166016 l 35.2793,-9.453125 1.89063,7.05664 -28.22462,7.5625 c -3.90185,1.045461 -6.20956,5.043463 -5.16406,8.9453129 1.0455,3.9018499 5.04348,6.2115441 8.94531,5.1660156 l 28.22267,-7.5625005 1.8906,7.054688 -129.6992,34.753906 6.55078,-32.003906 -100.44727,26.914062 -6.54883,32.003907 -32.95117,8.828125 c -13.36366,3.58079 -27.41393,-3.081265 -31.99219,-15.171875 -2.59943,-6.85073 -2.19155,-14.212495 1.1504,-20.734375 3.29873,-6.45736 9.32038,-10.749074 16.11132,-13.082032 L 994.12109,-52.421875 Z M 156.67383,-52.175781 528.55469,47.470703 515.87305,94.800781 143.99219,-4.84375 156.67383,-52.175781 Z m 17.02344,22.511719 c -3.19473,0.127089 -6.07234,2.303984 -6.94336,5.554687 -1.07203,4.000865 1.30187,8.113518 5.30273,9.185547 l 38.63672,10.3515624 c 4.00086,1.0720285 8.11352,-1.3018696 9.18555,-5.3027344 1.07202,-4.000865 -1.30187,-8.113518 -5.30274,-9.185547 l -38.63672,-10.353515 c -0.75016,-0.201006 -1.50494,-0.279335 -2.24218,-0.25 z M 140.10938,9.6445312 511.99023,109.28906 466.17969,280.25781 94.298828,180.61328 140.10938,9.6445312 Z M 1011.1289,11.082031 1099.9863,342.70508 845.98438,410.76367 757.12695,79.142578 778.29492,73.470703 825.93945,251.2832 c 1.28938,4.81205 5.49758,8.07119 10.48438,8.11133 1.0366,0.002 2.03184,-0.12172 2.98437,-0.37695 0.10585,-0.0284 0.19503,-0.089 0.29883,-0.125 0.31564,-0.0921 0.59817,-0.25073 0.90625,-0.3711 0.70404,-0.27938 1.36234,-0.61506 1.98438,-1.03125 0.30839,-0.20359 0.5913,-0.42303 0.86914,-0.65625 0.58194,-0.48115 1.08627,-1.02478 1.55468,-1.61914 0.20294,-0.25855 0.41956,-0.49154 0.59571,-0.76562 0.59602,-0.90839 1.09701,-1.88841 1.40625,-2.99219 l 16.46875,-57.56055 43.04297,41.6211 c 3.33762,3.22718 8.13881,3.87748 12.23437,1.91797 0.30242,-0.14147 0.625,-0.18417 0.91992,-0.35352 4.28967,-2.53332 6.18827,-7.42943 5.02344,-12.26562 L 877.06836,47.003906 1011.1289,11.082031 Z m -145.97656,8.865235 -4.06836,19.867187 -0.008,0.05664 -0.44922,2.191406 0.0801,0.296875 -0.27148,1.810547 0.99414,0.884766 0.21093,0.789062 45.54493,169.974611 -51.03321,-49.34375 -19.52539,68.25 -45.66601,-170.425783 5.29883,-25.890625 68.89257,-18.460937 z m -505.99609,0.08203 c -3.19473,0.12709 -6.07429,2.303985 -6.94531,5.554687 -1.07203,4.000865 1.30383,8.113519 5.30468,9.185547 l 7.72657,2.070313 c 4.00086,1.072028 8.11352,-1.30187 9.18554,-5.302735 1.07203,-4.000864 -1.30187,-8.113518 -5.30273,-9.185547 l -7.72852,-2.072265 c -0.75016,-0.201005 -1.50299,-0.279329 -2.24023,-0.25 z m 38.63672,10.351562 c -3.19473,0.127091 -6.07429,2.303985 -6.94531,5.554688 -1.07203,4.000865 1.30382,8.113518 5.30468,9.185547 l 7.72657,2.070312 c 4.00086,1.072029 8.11351,-1.301869 9.18554,-5.302734 1.07203,-4.000865 -1.30187,-8.113518 -5.30273,-9.185547 l -7.72852,-2.070313 c -0.75016,-0.200998 -1.50299,-0.281281 -2.24023,-0.251953 z m -240.66016,1.773438 c -3.19472,0.12709 -6.07233,2.303985 -6.94336,5.554687 l -33.1289,123.638677 c -1.07203,4.00086 1.30187,8.11351 5.30273,9.18554 l 139.09375,37.26953 c 4.00087,1.07203 8.11352,-1.30187 9.18555,-5.30273 l 33.1289,-123.638673 c 1.07203,-4.000865 -1.30187,-8.113518 -5.30273,-9.185547 L 159.375,32.40625 c -0.75016,-0.201005 -1.50494,-0.281282 -2.24219,-0.251953 z m 279.29688,8.580078 c -3.19473,0.12709 -6.07234,2.303986 -6.94336,5.554687 -1.07203,4.000871 1.30187,8.113519 5.30273,9.185547 l 7.72656,2.070313 c 4.00093,1.072028 8.11352,-1.301871 9.18555,-5.302734 1.07203,-4.000871 -1.30187,-8.113519 -5.30273,-9.185547 l -7.72656,-2.070313 c -0.75023,-0.201005 -1.50495,-0.281282 -2.24219,-0.251953 z M 162.73633,48.835938 287.3418,82.224609 258.0957,191.37305 133.49023,157.98633 162.73633,48.835938 Z m 312.33008,2.25 c -3.19473,0.127089 -6.07234,2.305937 -6.94336,5.55664 -1.07203,4.000865 1.30187,8.113518 5.30273,9.185547 l 7.72656,2.070313 c 4.00087,1.072021 8.11352,-1.303823 9.18555,-5.304688 1.07203,-4.000865 -1.30187,-8.113518 -5.30273,-9.185547 l -7.72657,-2.070312 c -0.75016,-0.201006 -1.50494,-0.281288 -2.24218,-0.251953 z M 327.13672,77.707031 c -3.19473,0.12709 -6.07429,2.303985 -6.94531,5.554688 -1.07203,4.000865 1.30382,8.113518 5.30468,9.185547 l 146.82032,39.339844 c 4.00086,1.07203 8.11351,-1.30188 9.18554,-5.30273 1.07203,-4.00093 -1.30187,-8.11352 -5.30273,-9.18555 L 329.37695,77.958984 c -0.75016,-0.201005 -1.50299,-0.281281 -2.24023,-0.251953 z m 392.8164,3.81836 c 7.08787,2.85755 15.1248,3.525357 23.0625,1.398437 l 88.84961,331.593752 c -11.74198,2.97229 -23.76607,-4.02991 -26.91015,-15.76367 L 719.95312,81.525391 Z m -401.0996,27.091799 c -3.19473,0.12709 -6.07234,2.30392 -6.94336,5.55469 -1.07203,4.00085 1.30187,8.11351 5.30273,9.18554 l 100.45703,26.91602 c 4.00087,1.07203 8.11352,-1.30187 9.18555,-5.30274 1.07203,-4.00086 -1.30187,-8.11352 -5.30274,-9.18554 L 321.0957,108.86719 c -0.75016,-0.20101 -1.50494,-0.27933 -2.24218,-0.25 z m -8.28125,30.9082 c -3.19473,0.12709 -6.07429,2.30399 -6.94532,5.55469 -1.07203,4.00086 1.30383,8.11359 5.30469,9.18554 L 370.75,170.83008 c 4.00086,1.07203 8.11352,-1.30187 9.18555,-5.30274 1.07203,-4.00086 -1.30187,-8.11351 -5.30274,-9.18554 L 312.8125,139.77734 c -0.75016,-0.201 -1.50299,-0.28128 -2.24023,-0.25195 z m 92.72851,24.84766 c -3.19472,0.12709 -6.07233,2.30398 -6.94336,5.55468 -1.07203,4.00087 1.30187,8.11352 5.30274,9.18555 l 61.81836,16.56445 c 4.00086,1.07203 8.11351,-1.30187 9.18554,-5.30273 1.07203,-4.00086 -1.30187,-8.11352 -5.30273,-9.18555 L 405.54297,164.625 c -0.75016,-0.20101 -1.50494,-0.28128 -2.24219,-0.25195 z m -101.01172,6.0625 c -3.19472,0.12709 -6.07233,2.30398 -6.94336,5.55468 -1.07203,4.00087 1.30187,8.11352 5.30274,9.18555 l 61.82031,16.56445 c 4.00086,1.07203 8.11352,-1.30187 9.18555,-5.30273 1.07203,-4.00086 -1.30383,-8.11352 -5.30469,-9.18555 L 304.53125,170.6875 c -0.75016,-0.20101 -1.50494,-0.28128 -2.24219,-0.25195 z m 92.72852,24.8457 c -3.19473,0.12709 -6.07234,2.30594 -6.94336,5.55664 -1.07203,4.00087 1.30187,8.11352 5.30273,9.18555 l 61.82032,16.56445 c 4.00086,1.07203 8.11351,-1.30382 9.18554,-5.30469 1.07203,-4.00086 -1.30187,-8.11352 -5.30273,-9.18554 L 397.25977,195.5332 c -0.75017,-0.201 -1.50495,-0.28128 -2.24219,-0.25195 z m -101.00977,6.06445 c -3.19472,0.12709 -6.07429,2.30399 -6.94531,5.55469 -1.07203,4.00087 1.30382,8.11352 5.30469,9.18555 l 61.81836,16.56445 c 4.00086,1.07203 8.11352,-1.30187 9.18554,-5.30273 1.07203,-4.00087 -1.30187,-8.11352 -5.30273,-9.18555 l -61.82031,-16.56445 c -0.75017,-0.20101 -1.50299,-0.28129 -2.24024,-0.25196 z M 35.769531,213.58789 237.67188,267.6875 c -0.0536,0.1575 -0.10861,0.31332 -0.15235,0.47656 -1.07203,4.00087 1.30187,8.11352 5.30274,9.18555 l 46.36328,12.42383 c 4.00086,1.07203 8.11352,-1.30187 9.18554,-5.30274 0.0437,-0.16324 0.0731,-0.32704 0.10547,-0.49023 l 201.9043,54.09961 -0.90625,3.38086 c -1.92665,7.19035 -9.3448,11.47352 -16.53516,9.54687 L 44.410156,233.50391 c -7.190352,-1.92665 -11.473524,-9.34481 -9.546875,-16.53516 l 0.90625,-3.38086 z m 350.966799,12.60352 c -3.19473,0.12709 -6.07234,2.30398 -6.94336,5.55468 -1.07203,4.00087 1.30187,8.11352 5.30273,9.18555 l 61.81836,16.56445 c 4.00087,1.07203 8.11352,-1.30187 9.18555,-5.30273 1.07203,-4.00087 -1.30188,-8.11352 -5.30273,-9.18555 l -61.81836,-16.56445 c -0.75017,-0.20101 -1.50495,-0.28128 -2.24219,-0.25195 z m -263.82617,189.375 c -1.66196,-0.0538 -3.3406,0.13701 -4.99414,0.58007 l -0.0176,0.006 c -4.40173,1.17944 -8.08001,4.00285 -10.34375,7.94922 l -51.197248,88.6776 c -2.283456,3.94233 -2.888427,8.54749 -1.708984,12.94922 1.179437,4.40172 4.002357,8.07921 7.953124,10.35937 l 35.869141,20.70899 c 4.182387,2.42199 12.687677,5.18674 22.667967,-3.49415 l 15.58008,-13.83007 8.46484,4.88672 -3.94921,19.2832 c -1.6593,3.59806 -2.007,7.64138 -0.9668,11.52344 1.17944,4.40172 4.00235,8.07921 7.95312,10.35937 l 42.49219,24.52734 c 4.07595,2.35326 9.29332,0.95498 11.6543,-3.12304 2.35092,-4.08465 0.9529,-9.303 -3.12305,-11.65625 l -42.49219,-24.52539 c 0.46664,-0.79693 0.79178,-1.66068 0.97461,-2.5586 l 5.40821,-26.4414 c 0.73196,-3.59702 -0.9149,-7.26354 -4.09961,-9.09571 l -19.11328,-11.03515 c -3.17703,-1.83424 -7.18869,-1.40573 -9.92579,1.00586 l -20.12695,17.85937 c -1.78856,1.56629 -2.64135,1.68107 -2.86523,1.53711 l -35.869144,-20.70898 51.199214,-88.67774 36.05664,20.85157 c 0.002,0.008 0.36171,0.79668 -0.0723,3.0332 l -5.41406,26.44336 c -0.73404,3.58928 0.91285,7.26342 4.08984,9.09765 l 19.11133,11.02735 c 3.19574,1.83853 7.19208,1.42261 9.93555,-1 l 20.1875,-17.90235 c 0.6829,-0.61573 1.27167,-1.32046 1.72851,-2.12304 l 107.2168,61.86718 c 0.61583,0.28534 61.23447,28.66567 73.27344,73.59571 4.83241,18.0348 8.25368,30.80111 6.82421,50.42578 -39.44776,-63.04642 -87.20133,-79.15598 -89.41796,-79.87891 -2.72057,-0.88813 -5.71042,-0.3427 -7.94532,1.43946 l -43.02734,34.3125 c -2.24029,1.79292 -3.68583,2.13512 -3.80274,2.19335 l -25.99609,-15.11914 c -1.96116,-1.15269 -4.30235,-1.85006 -6.49414,-0.86523 -2.19265,0.58752 -4.05517,2.01414 -5.18164,3.97656 L 20.076172,948.89062 c -0.960042,1.89199 -4.426678,7.05212 -8.853516,8.23829 -4.5495089,1.21903 -9.9644785,-1.48336 -12.21874975,-2.97266 L -11.892578,947.87891 c -1.891944,-0.96005 -7.052114,-4.42668 -8.238281,-8.85352 -1.161839,-4.33604 1.660641,-10.1533 2.970703,-12.21875 L 160.79492,618.58203 c 2.35962,-4.08697 0.96159,-9.30533 -3.12304,-11.65625 -4.07833,-2.36194 -9.29565,-0.96367 -11.6543,3.12305 L -31.677734,917.85156 c -0.859737,1.30809 -8.281184,13.113 -4.9375,25.5918 3.39027,12.65266 15.736971,19.03554 16.636718,19.45703 l 9.84375,5.64844 c 1.2622624,0.88961 12.7933479,8.54298 25.775391,5.06445 12.652662,-3.39027 19.035541,-15.73697 19.457031,-16.63672 L 223.90625,629.94922 242.52539,640.7832 c 6.82428,3.94 15.21111,2.62926 23.00391,-3.6289 l 39.11718,-31.19727 c 13.2938,5.92624 56.2322,29.05001 87.80664,91.79492 1.63764,3.24472 5.14516,5.09763 8.75586,4.625 3.53956,-0.50635 6.50347,-3.19095 7.22852,-6.75195 8.05851,-39.35985 3.20842,-57.46148 -3.50586,-82.51953 -14.12815,-52.72699 -79.84282,-83.40806 -81.92383,-84.31641 L 216.48828,467.2832 c -7.68393,-4.44366 -17.42641,-2.19387 -22.44531,4.89258 l -14.72461,13.0625 -8.46484,-4.88867 4.20898,-20.49219 c 2.49839,-12.89605 -4.2327,-18.92886 -8.47852,-21.38672 l -35.7207,-20.61523 c -2.46396,-1.42716 -5.1832,-2.19936 -7.95312,-2.28906 z m 898.51754,65.86132 c -110.27992,0 -199.99997,89.72002 -199.99997,200 0,110.28 89.72005,200 199.99997,200 110.28,0 200,-89.72 200,-200 0,-110.27998 -89.72,-200 -200,-200 z m 0,13.33399 c 102.9267,0 186.668,83.73936 186.668,186.66601 0,102.92667 -83.7413,186.66797 -186.668,186.66797 -102.92659,0 -186.66598,-83.7413 -186.66598,-186.66797 0,-102.92665 83.73939,-186.66601 186.66598,-186.66601 z m -47.34372,29.91601 c -0.44227,0.0141 -0.88927,0.0719 -1.33593,0.17774 -26.23334,6.30667 -50.14521,19.69989 -69.17188,38.72656 -19.02666,19.02667 -32.41403,42.93935 -38.7207,69.16602 -0.86,3.57333 1.34578,7.17435 4.92578,8.04101 0.52,0.12667 1.04721,0.17969 1.56055,0.17969 3.00666,0 5.74047,-2.05328 6.48047,-5.11328 5.72666,-23.83333 17.89968,-45.57271 35.17968,-62.85938 17.28,-17.28666 39.02605,-29.44716 62.85938,-35.17382 3.58,-0.86667 5.78773,-4.46769 4.92773,-8.04102 -0.7525,-3.1325 -3.60913,-5.20195 -6.70508,-5.10352 z m 8.67188,32.16016 c -0.44141,0.0146 -0.88816,0.0744 -1.33398,0.18359 -20.6,4.8 -39.36011,15.21282 -54.27344,30.13282 -14.91334,14.90666 -25.33282,33.67343 -30.13282,54.27343 -0.83998,3.58 1.39381,7.16667 4.98047,8 0.50667,0.12667 1.01288,0.17383 1.51953,0.17383 3.02667,0 5.76633,-2.07901 6.48633,-5.15234 4.23334,-18.16667 13.42756,-34.71386 26.57422,-47.86719 13.14667,-13.15333 29.70524,-22.34674 47.86524,-26.58008 3.58666,-0.83333 5.82045,-4.42 4.98047,-8 -0.72917,-3.13833 -3.57618,-5.26623 -6.66602,-5.16406 z m 8.70898,32.18555 c -0.44151,0.005 -0.88843,0.0557 -1.33593,0.15234 -30.38,6.64667 -54.30646,30.57313 -60.95313,60.95313 -0.78667,3.59333 1.49261,7.14692 5.08594,7.93359 0.48,0.10667 0.96026,0.15234 1.43359,0.15234 3.06667,0 5.8192,-2.12023 6.50586,-5.24023 5.54,-25.30667 25.47459,-45.2393 50.78125,-50.7793 3.58667,-0.78666 5.86675,-4.34026 5.08008,-7.93359 -0.69417,-3.15583 -3.50708,-5.27574 -6.59766,-5.23828 z m 29.96286,38.53906 c -29.69994,0 -53.8652,24.16523 -53.8652,53.86523 0,29.7 24.16526,53.86719 53.8652,53.86719 29.7,0 53.8672,-24.16719 53.8672,-53.86719 0,-29.7 -24.1672,-53.86523 -53.8672,-53.86523 z m 0,13.33203 c 22.3467,0 40.5332,18.18654 40.5332,40.5332 0,22.34667 -18.1798,40.53516 -40.5332,40.53516 -22.35327,0 -40.53317,-18.18849 -40.53317,-40.53516 0,-22.34666 18.18657,-40.5332 40.53317,-40.5332 z m 85.8262,63.74609 c -3.1013,-0.0438 -5.9035,2.08636 -6.5918,5.24219 -5.54,25.30667 -25.4726,45.2393 -50.7793,50.7793 -3.5933,0.78667 -5.8745,4.34026 -5.0879,7.93359 0.6867,3.12 3.4412,5.24024 6.5078,5.24024 0.4734,0 0.9517,-0.0543 1.4317,-0.1543 30.3733,-6.64667 54.3006,-30.57312 60.9472,-60.95312 0.7867,-3.59334 -1.4926,-7.14693 -5.0859,-7.9336 -0.45,-0.0983 -0.8987,-0.14803 -1.3418,-0.1543 z m 32.2617,8.60743 c -3.0994,-0.10856 -5.931,2.02963 -6.6601,5.16797 -4.2334,18.16666 -13.4276,34.7119 -26.5743,47.86523 -13.1465,13.15333 -29.6985,22.34755 -47.8652,26.57422 -3.5867,0.83333 -5.8205,4.42 -4.9805,8 0.7134,3.08 3.4597,5.15234 6.4864,5.15234 0.5,0 1.0062,-0.0519 1.5195,-0.17187 20.6,-4.8 39.3601,-15.21477 54.2734,-30.13477 14.9067,-14.90666 25.3211,-33.66562 30.1211,-54.26562 0.84,-3.58 -1.3938,-7.16667 -4.9804,-8 -0.4484,-0.11084 -0.8971,-0.172 -1.3399,-0.1875 z m 32.2188,8.63867 c -3.1024,-0.106 -5.9467,1.97104 -6.6992,5.10937 -5.7267,23.83334 -17.8997,45.57271 -35.1797,62.85938 -17.28,17.28667 -39.0272,29.45302 -62.8672,35.17969 -3.58,0.86666 -5.7858,4.46768 -4.9258,8.04101 0.7333,3.06 3.4718,5.11328 6.4785,5.11328 0.5133,0 1.0406,-0.0616 1.5606,-0.18164 26.24,-6.30666 50.1531,-19.69989 69.1796,-38.72656 19.0267,-19.02667 32.4133,-42.93855 38.7266,-69.17187 0.8533,-3.57334 -1.3516,-7.17435 -4.9316,-8.04102 -0.4484,-0.1075 -0.8986,-0.1665 -1.3418,-0.18164 z m -824.16995,48.64453 -15.10742,56.38086 -9.18359,-2.45899 -30.71094,10.39063 -6.67578,24.91406 -9.9668,-2.67187 -14.17187,8.18554 -9.11719,34.0254 8.18164,14.17187 17.01562,4.55859 0,0.002 -7.55468,28.19336 70.47851,18.88281 7.55274,-28.19141 17.01367,4.5586 14.17187,-8.18164 9.11719,-34.02735 -8.18164,-14.17187 -9.96484,-2.66992 6.67578,-24.91602 -21.4082,-24.35742 -9.17579,-2.45899 15.10743,-56.38086 -14.09571,-3.77734 z m 197.9043,54.33789 c -17.86271,-0.16837 -34.31206,11.71106 -39.14453,29.74609 l -0.94336,3.52539 -28.19141,-7.55468 c -11.65685,-3.12345 -23.6871,3.82166 -26.81054,15.47851 l -9.71094,36.24024 c -12.96591,-0.097 -24.92117,8.43141 -28.42969,21.52539 l -13.21875,49.33398 c -2.08282,7.77321 2.54562,15.78983 10.32031,17.87305 l 14.09571,3.77734 -32.10352,119.81255 c -2.45878,9.1762 1.37619,18.5136 8.77735,23.625 l -7.90235,29.4882 7.04883,1.8887 -7.55469,28.1914 21.14453,5.666 -13.21875,49.334 14.09571,3.7774 13.21875,-49.336 21.14453,5.666 7.55273,-28.1914 7.04883,1.8887 7.90039,-29.4883 c 8.96484,-0.7245 16.95528,-6.894 19.41406,-16.0703 l 41.31446,-154.18554 14.16406,-25.51367 17.66601,-65.08594 c 3.12345,-11.65686 -3.82165,-23.68515 -15.47851,-26.80859 l -28.19141,-7.55469 0.94336,-3.52539 c 3.64455,-13.60164 17.67618,-21.70354 31.2793,-18.0586 l 35.23828,9.44336 c 13.60164,3.64455 21.70354,17.67423 18.05859,31.27735 l -96.31054,359.43941 c -5.72777,21.3764 7.00015,43.4231 28.375,49.1504 21.37485,5.7274 43.42106,-7.0021 49.14843,-28.3769 l 80.42969,-300.16604 c 20.86846,1.98125 40.79751,-11.2934 46.40235,-32.21094 l 9.4414,-35.24023 -14.0957,-3.77734 5.66601,-21.14258 -14.09765,-3.77735 -5.66406,21.14454 -28.19336,-7.55469 5.66601,-21.14258 -14.0957,-3.77734 -5.66602,21.14453 -14.0957,-3.77735 -9.44141,35.24024 c -5.60324,20.91159 5.0154,42.36753 24.07813,51.09375 l -80.42969,300.16988 c -3.64455,13.6017 -17.67422,21.7036 -31.27734,18.0586 -13.60312,-3.6449 -21.70354,-17.6761 -18.0586,-31.2793 l 96.3125,-359.44137 c 5.72777,-21.37633 -7.0021,-43.42302 -28.37695,-49.15039 l -35.24023,-9.44141 c -3.34006,-0.89496 -6.696,-1.33991 -10.00391,-1.37109 z m -221.70117,14.82422 23.92187,6.41016 13.33203,15.16796 -4.65429,17.37305 -56.38477,-15.10937 4.65625,-17.37305 19.12891,-6.46875 z m 147.4668,24.74609 c 0.71675,-0.0291 1.44955,0.0471 2.17773,0.24219 l 70.47851,18.88477 c 3.88515,1.04101 6.20078,5.05385 5.16016,8.9375 l -16.76367,62.5625 -14.16406,25.51367 -42.2168,156.70902 c -1.04062,3.8836 -5.0519,6.1988 -8.93555,5.1582 l -7.04882,-1.8887 39.6582,-148.00391 -14.0957,-3.77735 -39.65821,148.00586 -14.0957,-3.7773 39.6582,-148.0059 -14.0957,-3.77539 -39.6582,148.00389 -7.04883,-1.8887 c -3.88365,-1.0406 -6.19883,-5.0519 -5.15821,-8.9355 l 41.54493,-155.05274 0.73828,-30.94531 16.76367,-62.56445 c 0.8455,-3.15547 3.65368,-5.27612 6.75977,-5.40235 z m -193.25586,8.3086 4.1289,1.10547 84.57617,22.6621 4.12891,1.10743 2.13477,3.69922 -5.99024,22.35546 -3.69922,2.13477 -11.17578,-2.99414 3.77539,-14.0957 -14.0957,-3.77735 -3.77734,14.09571 -14.09571,-3.77735 3.77735,-14.0957 -14.09571,-3.77735 -3.77734,14.09571 -14.0957,-3.77539 3.77734,-14.09766 -14.0957,-3.77539 -3.77735,14.0957 -11.17773,-2.99609 -2.13477,-3.69922 5.99024,-22.35547 3.69922,-2.13476 z m 370.24609,16.11523 56.38281,15.10742 -5.66406,21.14258 c -4.16605,15.5479 -20.19624,24.80472 -35.74414,20.63867 -15.5479,-4.16604 -24.80472,-20.19819 -20.63867,-35.74609 l 5.66406,-21.14258 z m -211.58594,28.4961 -3.25195,12.13671 -0.73828,30.94532 -5.4336,20.27734 -14.0957,-3.77734 13.21875,-49.33399 c 1.39199,-5.19497 5.45266,-8.92652 10.30078,-10.24804 z m -144.71679,4.44726 42.2871,11.33008 -3.77734,14.0957 -42.28711,-11.33008 3.77735,-14.0957 z m 612.22851,32.39844 c -3.0208,0.10779 -4.72713,1.45752 -4.16016,4.85937 -66.21359,-0.62218 -127.2002,43.41895 -145.11328,110.27145 -12.10908,45.1917 -2.06746,93.5906 26.75391,130.3516 -0.66978,2.3852 -1.34155,4.7155 -2.00391,7.1875 -8.12408,30.3195 -19.25002,71.8465 9.48828,79.5469 22.73183,6.0909 34.44422,-13.595 37.46094,-24.8535 1.06077,-3.9589 -1.28204,-8.006 -5.22851,-9.086 l -0.0352,-0.01 c -3.94454,-1.0569 -8.00341,1.2758 -9.0957,5.2109 -0.5147,1.8636 -5.44986,18.0674 -19.25196,14.3691 -14.36957,-3.8503 -5.10236,-38.4372 1.03125,-61.3281 35.61661,-132.923 77.7354,-140.8433 78.9336,-141.0312 3.99647,-0.3459 7.00752,-3.8212 6.76367,-7.8516 -0.24164,-4.0994 -3.7384,-7.2298 -7.86328,-6.9805 -2.05203,0.1279 -10.34696,1.2545 -21.98242,10.6504 -0.19562,-2.8634 0.0395,-5.8945 0.87109,-8.998 3.18412,-11.8833 15.44679,-18.9634 27.33008,-15.7793 11.88329,3.1841 18.96146,15.4468 15.77734,27.3301 -2.64696,9.8786 -11.63012,16.6799 -21.84179,16.539 -4.10543,-0.052 -7.48196,3.2327 -7.53516,7.3379 -0.0462,3.4763 2.29945,6.4227 5.5039,7.2813 0.58939,0.1579 1.19471,0.2504 1.83204,0.2597 17.02431,0.2337 31.99967,-11.1081 36.41015,-27.5683 5.30747,-19.8077 -6.4883,-40.2412 -26.29687,-45.5489 -19.80774,-5.3075 -40.24309,6.4883 -45.55078,26.2969 -2.34286,8.7436 -1.79206,17.4695 1.22265,24.8691 -15.23485,17.5719 -33.5112,48.7349 -50.66797,104.086 -20.95589,-31.7739 -27.60318,-71.3092 -17.65625,-108.4317 19.10675,-71.3073 92.66728,-113.77857 163.97461,-94.67183 71.30734,19.10674 113.77864,92.66733 94.67194,163.97463 -19.1068,71.3074 -92.66734,113.7787 -163.97467,94.6719 -16.59653,-4.447 -31.91801,-11.871 -45.54883,-22.0684 -3.26083,-2.4602 -7.94405,-1.7896 -10.4043,1.502 -2.46024,3.2914 -1.78586,7.9539 1.49805,10.4121 15.15112,11.3367 32.17685,19.5854 50.60547,24.5234 79.23261,21.2303 160.96508,-25.9569 182.19538,-105.1895 21.2303,-79.2326 -25.9577,-160.96518 -105.18952,-182.19527 -8.8981,-2.38424 -25.204,-10.21492 -32.92383,-9.93945 z m -673.40039,26.75 -56.65234,211.43362 70.47656,18.8847 7.55469,-28.1914 21.14453,5.666 3.77734,-14.0957 -21.14453,-5.666 3.77734,-14.0957 35.24024,9.4414 3.77539,-14.0957 -35.23828,-9.4414 3.77539,-14.0976 49.33594,13.2207 3.77539,-14.0977 -49.33399,-13.2187 3.77735,-14.0957 63.42968,16.9961 3.77735,-14.0958 -63.42969,-16.996 3.77539,-14.0938 77.52734,20.7734 3.77735,-14.0957 -77.52735,-20.7734 3.77735,-14.0957 91.62304,24.5508 3.7754,-14.0957 -91.6211,-24.5508 7.55274,-28.19141 L 230.75,980.95508 Z m 10.31836,17.87304 42.28711,11.33208 -3.77735,14.0957 -28.18945,-7.5547 -3.77734,14.0957 28.1914,7.5547 -3.77539,14.0937 -28.19336,-7.5547 -3.77539,14.0957 28.19141,7.5547 -3.77734,14.0957 -28.19141,-7.5547 -3.77734,14.0957 28.1914,7.5547 -3.77734,14.0957 -28.19141,-7.5527 -3.77734,14.0957 28.19336,7.5527 -3.77735,14.0957 -28.1914,-7.5527 -3.77735,14.0957 28.19141,7.5547 -3.77734,14.0957 -28.19141,-7.5547 -3.77734,14.0957 28.1914,7.5547 -3.77734,14.0957 -42.28711,-11.3301 49.09961,-183.24608 z m 172.79102,144.49808 42.2871,11.332 -3.77734,14.0957 -42.28516,-11.332 3.7754,-14.0957 z m -0.50586,30.08 28.1914,7.5528 -3.77734,14.0957 -28.19141,-7.5527 3.77735,-14.0958 z m 614.72068,46.4512 c -1.1985,0.032 -2.4066,0.3555 -3.5195,0.9981 -3.5624,2.0567 -4.7797,6.5966 -2.7227,10.1582 l 93.1309,161.3066 -16.5293,61.6875 -57.4785,-15.4004 5.7754,-21.5547 c 1.0625,-3.9656 -1.2847,-8.0447 -5.2578,-9.1093 l -21.5547,-5.7754 5.7754,-21.5528 c 1.0625,-3.9656 -1.2866,-8.0447 -5.2598,-9.1093 l -21.55274,-5.7754 5.77534,-21.5547 c 1.0626,-3.9656 -1.2866,-8.0448 -5.25972,-9.1094 l -25.76562,-6.9043 -30.01563,-51.9883 c -2.05676,-3.5624 -6.59662,-4.7796 -10.1582,-2.7226 -3.56135,2.0561 -4.77882,6.5968 -2.72265,10.1582 l 31.55664,54.6582 c 0.98614,1.7081 2.60439,2.9547 4.51562,3.4668 l 21.55469,5.7754 -5.77539,21.5547 c -1.06253,3.9655 1.28464,8.0447 5.25781,9.1093 l 21.55465,5.7754 -5.7754,21.5528 c -1.0625,3.9655 1.2866,8.0447 5.2598,9.1093 l 21.5527,5.7754 -5.7753,21.5547 c -1.0626,3.9656 1.2866,8.0448 5.2597,9.1094 l 71.8477,19.25 c 3.9731,1.0646 8.0468,-1.2922 9.1094,-5.2578 l 19.25,-71.8477 c 0.5109,-1.9034 0.2482,-3.9369 -0.7422,-5.6426 l -94.6719,-163.9765 c -1.4138,-2.4488 -4.002,-3.7884 -6.6387,-3.7188 z m -36.43943,21.0391 c -1.19854,0.032 -2.4085,0.3533 -3.52149,0.9961 -3.56135,2.0561 -4.77714,6.5982 -2.7207,10.1601 l 94.66992,163.9746 c 1.0256,1.7764 2.6768,2.9741 4.5156,3.4668 1.8397,0.493 3.8682,0.2815 5.6446,-0.7441 3.5613,-2.0561 4.7787,-6.5969 2.7226,-10.1582 l -94.67186,-163.9766 c -1.41402,-2.4491 -4.0019,-3.7885 -6.63867,-3.7187 z m -704.08985,117.8183 c -1.49548,0.027 -2.97569,0.5018 -4.23633,1.3985 -52.18124,37.3025 -101.09322,89.5597 -101.58398,90.0801 -2.82442,3.0335 -2.6624,7.7849 0.37109,10.6093 3.0267,2.8263 7.77816,2.6643 10.60938,-0.3711 0.44485,-0.4843 42.99652,-45.9391 90.56445,-81.664 l 75.42383,281.4804 c -44.88432,30.4598 -89.03407,72.3876 -107.75781,90.879 l -74.33789,-277.4278 c -0.73629,-2.7478 -2.95983,-4.8407 -5.74805,-5.414 -1.41238,-0.2818 -35.048,-6.9679 -72.583985,3.0898 -65.515695,17.5549 -112.088596,45.2266 -114.042969,46.4023 -2.873647,1.718 -4.25518,5.1431 -3.388672,8.377 l 85.482422,319.0234 c 0.608104,2.2695 2.256904,4.1289 4.429688,5.0157 1.534612,0.6224 3.204523,0.7107 4.763672,0.2929 0.666993,-0.1787 1.30815,-0.4509 1.910156,-0.8144 0.463575,-0.2718 46.829018,-27.7879 110.212888,-44.7715 26.50808,-7.1028 51.37041,-4.9203 61.20899,-3.5859 l 4.5664,17.0468 -174.013669,46.625 c -11.992277,3.2133 -24.364804,-3.9296 -27.578125,-15.9218 L -23.953125,1566.293 c -1.072321,-4.002 -5.191402,-6.3809 -9.193359,-5.3086 -4.001958,1.0723 -6.378962,5.1914 -5.306641,9.1933 l 75.767578,282.7715 c 5.356142,19.9894 25.976553,31.8955 45.966797,26.5391 l 362.52734,-97.1387 c 19.9894,-5.3561 31.89544,-25.9765 26.53907,-45.9668 l -75.76758,-282.7715 c -1.0734,-4.0026 -5.18376,-6.3829 -9.19336,-5.3086 -4.00961,1.0744 -6.38091,5.1914 -5.3086,9.1934 l 75.76758,282.7715 c 3.21332,11.9923 -3.92959,24.3667 -15.92187,27.5801 l -174.01367,46.6269 -4.47071,-16.6836 c 9.58081,-6.5304 34.8089,-22.5309 61.95508,-29.8047 63.15956,-16.9235 109.79368,-14.4283 110.25977,-14.3984 2.37616,0.1401 4.71655,-0.8754 6.25781,-2.75 1.52704,-1.8699 2.05741,-4.3575 1.43359,-6.6856 l -85.48242,-319.0234 c -0.91113,-3.4004 -4.0566,-5.7122 -7.57422,-5.5547 0,0 -6.02464,0.2552 -16.21875,1.0742 -4.11714,0.3264 -7.20821,3.952 -6.88086,8.0762 0.33207,4.1384 3.94654,7.2189 8.07813,6.8887 3.88801,-0.3114 7.15274,-0.5412 9.67383,-0.7031 l 81.32031,303.4921 c -17.58417,0.096 -56.16029,2.0634 -104.75391,15.084 -31.59082,8.4648 -59.84187,27.1549 -68.5,33.2442 -9.54428,-1.4833 -38.05495,-4.6939 -69.26172,3.6679 -49.94205,13.382 -88.87414,32.6423 -105.429684,41.5625 l -81.4785154,-304.08 C 10.363226,1520.441 50.6356,1499.6803 102.15039,1485.877 c 26.43586,-7.0835 51.31338,-4.9297 61.20703,-3.5938 l 76.45117,285.3223 c 0.6994,2.6102 2.75198,4.6493 5.36524,5.3242 2.6153,0.6825 5.40588,-0.104 7.28515,-2.0527 0.60346,-0.6198 60.94288,-62.7794 119.00977,-101.1153 2.69921,-1.7878 3.95455,-5.0839 3.11719,-8.209 l -79.6543,-297.2715 c -0.63725,-2.378 -2.40188,-4.2923 -4.72266,-5.123 -0.86496,-0.3133 -1.76677,-0.4593 -2.66406,-0.4434 z M 273,1448.1875 c -1.44521,-0.04 -2.92142,0.3374 -4.24414,1.1758 -20.29348,12.9525 -56.90973,45.8451 -58.46289,47.2402 -3.08131,2.7681 -3.33266,7.5126 -0.5625,10.6016 1.95508,2.1644 4.89609,2.9317 7.53515,2.2246 1.10203,-0.2953 2.16404,-0.8519 3.07227,-1.6699 0.3691,-0.3321 37.23733,-33.4479 56.50391,-45.7364 3.48975,-2.2328 4.51576,-6.8743 2.2832,-10.3632 -1.39125,-2.1823 -3.71632,-3.4069 -6.125,-3.4727 z m 11.65625,43.502 c -1.44521,-0.04 -2.92142,0.3374 -4.24414,1.1757 -20.29348,12.9526 -56.90973,45.8451 -58.46289,47.2403 -3.08216,2.7683 -3.33243,7.5134 -0.5625,10.6015 1.95531,2.1653 4.89607,2.9318 7.53516,2.2246 1.102,-0.2952 2.16403,-0.8519 3.07226,-1.6699 0.3691,-0.332 37.23733,-33.4478 56.50391,-45.7363 3.48975,-2.2328 4.51576,-6.8744 2.2832,-10.3633 -1.39125,-2.1822 -3.71632,-3.4068 -6.125,-3.4726 z m 731.35745,0.088 c -6.1965,0.052 -12.3976,1.5008 -18.09378,4.375 l -35.26367,17.8028 c -13.01994,6.5696 -21.61447,19.6958 -22.43164,34.2558 l -1.13672,20.2051 -244.10351,123.2188 -16.92969,-11.086 c -12.19968,-7.9893 -27.86289,-8.8665 -40.88281,-2.2968 l -35.26758,17.8007 c -13.01686,6.5707 -21.61333,19.6988 -22.4336,34.2578 l -0.76953,13.7422 c -0.16079,2.904 1.23619,5.6726 3.66602,7.2637 2.4319,1.5952 5.53129,1.7689 8.125,0.457 l 41.39843,-20.9023 c 4.77348,-2.407 10.22478,-2.805 15.35352,-1.1172 5.12565,1.6868 9.27857,5.2461 11.68555,10.0195 l 9.40039,18.6192 c 2.40698,4.7735 2.80699,10.2248 1.11914,15.3535 -1.68785,5.1287 -5.24618,9.2784 -10.01758,11.6894 l -41.40234,20.8985 c -2.59371,1.3118 -4.29006,3.9066 -4.45703,6.8086 -0.16079,2.9039 1.237,5.6735 3.66992,7.2656 l 11.51562,7.5371 c 3.01071,1.9707 6.23902,3.5125 9.58399,4.6133 10.19564,3.3554 21.50024,2.633 31.29882,-2.3106 l 35.26368,-17.8046 c 13.02096,-6.5728 21.61744,-19.699 22.43359,-34.2559 l 1.13672,-20.207 244.10156,-123.2168 16.92969,11.0859 c 12.20484,7.9842 27.86794,8.8656 40.88474,2.2949 l 35.2637,-17.8027 c 13.021,-6.5727 21.6174,-19.7009 22.4336,-34.2578 l 0.7734,-13.7402 c 0.1608,-2.904 -1.2362,-5.6746 -3.666,-7.2657 -2.4257,-1.5932 -5.5313,-1.7688 -8.125,-0.457 l -41.4004,20.8984 c -4.7735,2.407 -10.2267,2.807 -15.3554,1.1192 -5.1288,-1.6879 -9.2784,-5.2462 -11.6895,-10.0176 L 999.22852,1568 c -2.408,-4.7704 -2.807,-10.2228 -1.11914,-15.3516 1.68783,-5.1287 5.24622,-9.2783 10.01762,-11.6894 l 41.4042,-20.8965 c 2.5938,-1.3118 4.2901,-3.9067 4.4571,-6.8086 0.1608,-2.904 -1.2362,-5.6725 -3.666,-7.2637 l -11.5176,-7.5429 c -6.8646,-4.4929 -14.8241,-6.7362 -22.791,-6.67 z m 0,16.2618 0,0 c 4.741,-0.065 9.4851,1.2275 13.5996,3.8437 l -28.8183,14.5449 c -8.65533,4.3639 -15.09748,11.8681 -18.14456,21.127 -3.04709,9.2589 -2.31823,19.1233 2.05078,27.7734 l 9.39649,18.6211 c 4.36491,8.6522 11.87119,15.0965 21.12699,18.1426 9.2559,3.0461 19.1232,2.3202 27.7734,-2.0488 l 28.8184,-14.545 c -0.5999,8.6424 -5.7468,16.4048 -13.4961,20.3165 l -35.2637,17.8027 c -7.8438,3.9594 -17.2968,3.4285 -24.63477,-1.3848 l -20.85938,-13.6601 c -2.43085,-1.5881 -5.53232,-1.7658 -8.125,-0.4571 l -252.48828,127.4532 c -2.5937,1.3118 -4.29005,3.9047 -4.45703,6.8066 l -1.40234,24.8965 c -0.49141,8.7706 -5.6708,16.6801 -13.51563,20.6426 l -35.26367,17.8027 c -7.74417,3.9065 -17.03608,3.4458 -24.36523,-1.207 l 28.81835,-14.541 c 8.65634,-4.3671 15.09651,-11.8712 18.14258,-21.127 3.04708,-9.2589 2.31916,-19.1241 -2.04882,-27.7773 l -9.4004,-18.6172 c -4.36491,-8.6523 -11.86916,-15.0965 -21.125,-18.1426 -9.25584,-3.0461 -19.12327,-2.3182 -27.77343,2.0508 l -28.81836,14.5429 c 0.60098,-8.6454 5.74895,-16.4067 13.49414,-20.3164 l 35.26562,-17.8027 c 7.8438,-3.9594 17.29254,-3.4306 24.63672,1.3848 L 690,1707.8242 c 2.42982,1.5911 5.52934,1.769 8.12305,0.457 l 252.49023,-127.4511 c 2.59371,-1.3119 4.29006,-3.9067 4.45703,-6.8086 l 1.40235,-24.8965 c 0.49242,-8.7737 5.6708,-16.684 13.51562,-20.6465 l 35.26562,-17.8047 c 3.3879,-1.7101 7.0725,-2.5836 10.7598,-2.6347 z m -719.7012,27.1543 c -1.44521,-0.04 -2.91947,0.3374 -4.24219,1.1757 -20.29348,12.9526 -56.91168,45.8451 -58.46484,47.2403 -3.08216,2.7683 -3.33243,7.5134 -0.5625,10.6015 1.95531,2.1653 4.89609,2.9318 7.53515,2.2246 1.10203,-0.2952 2.16599,-0.8538 3.07422,-1.6718 0.36911,-0.3321 37.23733,-33.4459 56.50391,-45.7344 3.48975,-2.2328 4.51381,-6.8744 2.28125,-10.3633 -1.39125,-2.1822 -3.71632,-3.4068 -6.125,-3.4726 z m -154.12891,6.4609 c -47.586908,1.4904 -94.878101,28.5086 -96.863278,29.6543 -3.586552,2.072 -4.820182,6.6617 -2.746093,10.2559 1.738394,3.0075 5.237379,4.353 8.435547,3.496 0.623659,-0.1671 1.233629,-0.4143 1.820312,-0.75 0.44913,-0.2678 45.980618,-26.2791 89.830082,-27.6543 4.12167,-0.1326 7.39745,-3.5985 7.26562,-7.7441 -0.13063,-4.1377 -3.5966,-7.3896 -7.74219,-7.2578 z m 165.78711,37.041 c -1.44521,-0.04 -2.92142,0.3394 -4.24414,1.1777 -20.29348,12.9526 -56.90973,45.8432 -58.46289,47.2383 -3.08215,2.7684 -3.33438,7.5154 -0.56445,10.6035 1.95531,2.1653 4.89607,2.9298 7.53516,2.2227 1.102,-0.2953 2.16598,-0.8519 3.07421,-1.6699 0.36911,-0.3321 37.23733,-33.4459 56.50391,-45.7344 3.48975,-2.2328 4.51381,-6.8763 2.28125,-10.3652 -1.39125,-2.1823 -3.71436,-3.4068 -6.12305,-3.4727 z m -154.13086,6.4629 c -47.58487,1.498 -94.878101,28.5086 -96.863278,29.6543 -3.586552,2.072 -4.819954,6.6606 -2.746093,10.2539 1.738394,3.0075 5.237379,4.355 8.435547,3.4981 0.623659,-0.1672 1.233629,-0.4163 1.820312,-0.752 0.44913,-0.2679 45.980622,-26.2773 89.830082,-27.6523 4.12167,-0.1328 7.39745,-3.5986 7.26562,-7.7442 -0.13063,-4.1377 -3.5966,-7.3896 -7.74219,-7.2578 z m 165.78711,37.041 c -1.44524,-0.04 -2.92142,0.3375 -4.24414,1.1758 -20.29348,12.9525 -56.90973,45.8451 -58.46289,47.2402 -3.08215,2.7684 -3.33243,7.5135 -0.5625,10.6016 1.95531,2.1653 4.89608,2.9317 7.53516,2.2246 1.10202,-0.2953 2.16403,-0.8519 3.07226,-1.6699 0.36911,-0.332 37.23733,-33.4478 56.50391,-45.7363 3.48975,-2.2328 4.51381,-6.8744 2.28125,-10.3633 -1.3911,-2.1817 -3.71432,-3.4067 -6.12305,-3.4727 z m -154.13086,6.4629 c -47.58487,1.498 -94.88015,28.499 -96.863278,29.6524 -3.586552,2.072 -4.819954,6.6625 -2.746093,10.2558 1.738394,3.0075 5.241286,4.3628 8.439453,3.5059 0.623659,-0.1671 1.22995,-0.4233 1.816406,-0.7598 0.44913,-0.2679 45.980622,-26.2773 89.830082,-27.6523 4.12167,-0.1327 7.39745,-3.5986 7.26562,-7.7442 -0.13063,-4.1377 -3.5966,-7.3896 -7.74219,-7.2578 z m 11.65625,43.502 c -47.58692,1.4903 -94.88015,28.5009 -96.863278,29.6543 -3.586552,2.072 -4.819954,6.6625 -2.746093,10.2558 1.738394,3.0075 5.241286,4.3609 8.439453,3.5039 0.623659,-0.1671 1.22995,-0.4212 1.816406,-0.7578 0.44913,-0.2679 45.982582,-26.2793 89.832032,-27.6543 4.12168,-0.1327 7.39746,-3.5985 7.26562,-7.7441 -0.13063,-4.1377 -3.59855,-7.3897 -7.74414,-7.2578 z m 11.65625,43.5039 c -47.58692,1.4903 -94.878101,28.5085 -96.863278,29.6543 -3.586552,2.072 -4.819954,6.6605 -2.746093,10.2539 1.738394,3.0075 5.241286,4.3628 8.439453,3.5058 0.623659,-0.1671 1.22995,-0.4232 1.816406,-0.7597 0.44913,-0.2679 45.982582,-26.2774 89.832032,-27.6524 4.11963,-0.1403 7.39746,-3.5985 7.26562,-7.7441 -0.13063,-4.1377 -3.59855,-7.3897 -7.74414,-7.2578 z m 962.68751,3.125 c -0.3042,0.01 -0.6109,0.024 -0.918,0.053 l -24.9843,2.3828 c -1.3784,-0.08 -2.7973,0.1925 -4.1172,0.8613 l -198.3223,100.1133 -3.99414,-7.9062 c -2.02328,-4.0134 -6.91339,-5.624 -10.92774,-3.5977 l -26.83594,13.5469 -12.4414,-24.6426 c -2.02328,-4.0133 -6.91339,-5.6221 -10.92774,-3.5957 -4.01333,2.0233 -5.62309,6.9165 -3.5957,10.9277 l 3.86914,7.67 -168.65234,85.1328 c -14.75799,7.447 -20.70593,25.5164 -13.25586,40.2754 l 5.32226,10.5468 c 0.004,0.01 0.008,0.016 0.0156,0.025 l 19.29297,38.2207 c 3.61197,7.1505 9.78839,12.465 17.39648,14.9688 7.60809,2.5038 15.73349,1.8918 22.88086,-1.7109 l 168.65234,-85.1329 3.8711,7.6719 c 2.02328,4.0133 6.91534,5.624 10.92969,3.5977 4.01333,-2.0233 5.62309,-6.9185 3.5957,-10.9297 l -12.4375,-24.6426 26.83594,-13.5488 c 1.92396,-0.9738 3.38695,-2.6699 4.0625,-4.7227 0.67554,-2.0527 0.50789,-4.2819 -0.46485,-6.209 l -3.99218,-7.9101 198.32231,-100.1094 c 1.3158,-0.6668 2.3747,-1.6366 3.1308,-2.7891 l 16.7618,-18.6972 c 3.2937,-3.6786 3.9872,-8.9018 1.7617,-13.3106 -2.0893,-4.1342 -6.2714,-6.628 -10.834,-6.539 z m -10.5117,17.3164 -9.2266,10.2929 -196.73436,99.3047 -2.82617,-5.5996 -1.71094,-3.3808 196.73047,-99.3067 13.7676,-1.3105 z m -232.67971,92.7773 3.95898,7.8438 0.0332,0.064 15.85937,31.418 -19.57813,9.8789 -19.84765,-39.3242 19.57422,-9.8809 z m -42.66992,0.2442 4.84179,9.5879 c 0.0177,0.04 0.0379,0.08 0.0586,0.121 l 32.08789,63.5625 -168.65235,85.1309 c -3.27065,1.651 -6.98694,1.9297 -10.46484,0.7852 -3.4779,-1.1446 -6.30115,-3.5782 -7.95313,-6.8457 l -1.67187,-3.3125 149.90234,-75.6641 c 5.63223,-2.8405 9.82025,-7.7088 11.79297,-13.7031 1.97272,-5.9944 1.49199,-12.3961 -1.35156,-18.0293 -5.86963,-11.6281 -20.10343,-16.308 -31.73047,-10.4414 l -149.89844,75.666 -1.67382,-3.3086 c -3.40772,-6.7509 -0.35492,-14.4176 6.0625,-18.418 l 168.65039,-85.1308 z m -12.29102,44.9375 c 2.60548,0.08 5.09072,1.5447 6.34766,4.0312 1.82518,3.6158 0.36774,8.0459 -3.24805,9.8711 l -149.89844,75.6641 -6.62304,-13.1192 149.89843,-75.664 c 1.12994,-0.5704 2.33913,-0.8197 3.52344,-0.7832 z" />
      </g>
      <g
         id="g4845" />
      <g
         id="g4847" />
      <g
         id="g4849" />
      <g
         id="g4851" />
      <g
         id="g4853" />
      <g
         id="g4855" />
      <g
         id="g4857" />
      <g
         id="g4859" />
      <g
         id="g4861" />
      <g
         id="g4863" />
      <g
         id="g4865" />
      <g
         id="g4868" />
      <g
         id="g4870" />
      <g
         id="g4872" />
      <g
         id="g4874" />
    </g>
  </g>
</svg>
