<?xml version="1.0" encoding="UTF-8" standalone="no"?>
<!-- Created with Inkscape (http://www.inkscape.org/) -->

<svg
   xmlns:osb="http://www.openswatchbook.org/uri/2009/osb"
   xmlns:dc="http://purl.org/dc/elements/1.1/"
   xmlns:cc="http://creativecommons.org/ns#"
   xmlns:rdf="http://www.w3.org/1999/02/22-rdf-syntax-ns#"
   xmlns:svg="http://www.w3.org/2000/svg"
   xmlns="http://www.w3.org/2000/svg"
   xmlns:xlink="http://www.w3.org/1999/xlink"
   xmlns:sodipodi="http://sodipodi.sourceforge.net/DTD/sodipodi-0.dtd"
   xmlns:inkscape="http://www.inkscape.org/namespaces/inkscape"
   width="224.03847mm"
   height="59.669842mm"
   viewBox="0 0 793.83709 211.42857"
   id="svg5580"
   version="1.1"
   inkscape:version="0.91 r13725"
   sodipodi:docname="logo.svg">
  <defs
     id="defs5582">
    <linearGradient
       inkscape:collect="always"
       xlink:href="#linearGradient4217"
       id="linearGradient4221"
       x1="513.42859"
       y1="-293.35214"
       x2="724.85718"
       y2="-293.35214"
       gradientUnits="userSpaceOnUse" />
    <linearGradient
       id="linearGradient4217"
       osb:paint="solid"
       gradientTransform="matrix(0.1486571,0,0,0.57014988,2346.7332,940.67409)">
      <stop
         style="stop-color:#d79600;stop-opacity:1;"
         offset="0"
         id="stop4219" />
    </linearGradient>
  </defs>
  <sodipodi:namedview
     id="base"
     pagecolor="#ffffff"
     bordercolor="#666666"
     borderopacity="1.0"
     inkscape:pageopacity="0.0"
     inkscape:pageshadow="2"
     inkscape:zoom="0.35"
     inkscape:cx="417.63287"
     inkscape:cy="-768.57143"
     inkscape:document-units="px"
     inkscape:current-layer="g5554"
     showgrid="false"
     fit-margin-top="0"
     fit-margin-left="0"
     fit-margin-right="0"
     fit-margin-bottom="0"
     inkscape:window-width="1500"
     inkscape:window-height="937"
     inkscape:window-x="-8"
     inkscape:window-y="-8"
     inkscape:window-maximized="1" />
  <metadata
     id="metadata5585">
    <rdf:RDF>
      <cc:Work
         rdf:about="">
        <dc:format>image/svg+xml</dc:format>
        <dc:type
           rdf:resource="http://purl.org/dc/dcmitype/StillImage" />
        <dc:title />
      </cc:Work>
    </rdf:RDF>
  </metadata>
  <g
     inkscape:label="Layer 1"
     inkscape:groupmode="layer"
     id="layer1"
     transform="translate(896.91859,447.6378)">
    <g
       transform="translate(-1038.9586,-48.571367)"
       id="g5554">
      <circle
         style="fill:url(#linearGradient4221);fill-opacity:1"
         id="circle5556"
         cx="619.14288"
         cy="-293.35214"
         r="105.71429" />
      <g
         style="font-style:normal;font-weight:normal;font-size:132.5539856px;line-height:125%;font-family:sans-serif;letter-spacing:0px;word-spacing:0px;fill:#000000;fill-opacity:1;stroke:none;stroke-width:1px;stroke-linecap:butt;stroke-linejoin:miter;stroke-opacity:1"
         id="text5558">
        <path
           d="m 196.38714,-311.13081 q -10.73687,-13.91817 -25.18526,-13.91817 -10.73687,0 -18.02734,8.48346 -7.15791,8.61601 -7.15791,22.26907 0,13.65306 7.55557,22.00396 7.55558,8.21835 19.8831,8.21835 12.19497,0 20.41332,-6.6277 2.12086,-1.59065 3.31385,-2.65108 1.19298,-1.06044 1.85575,-0.66277 0.66277,0.2651 1.32554,1.06043 0.66277,0.79532 0.66277,1.45809 0,0.53022 -1.19298,1.7232 -4.37429,3.84407 -10.73688,6.76026 -6.23003,2.91618 -15.90648,2.91618 -14.05072,0 -22.66673,-9.54388 -8.48345,-9.67644 -8.48345,-24.92015 0,-15.24371 8.3509,-24.7876 8.3509,-9.67644 21.07608,-9.67644 12.85774,0 22.79929,9.94155 2.12086,1.85576 2.12086,-1.32554 l 0,-5.30216 q 0,-1.98831 1.98831,-1.98831 1.98831,0 1.98831,1.98831 l 0,21.20864 q 0,1.98831 -1.98831,1.98831 -1.98831,0 -1.98831,-1.98831 l 0,-6.6277 z"
           style="font-style:normal;font-variant:normal;font-weight:normal;font-stretch:normal;font-family:'Nixie One';-inkscape-font-specification:'Nixie One'"
           id="path4142" />
        <path
           d="m 212.53595,-265.39968 9.27878,0 q 1.98831,0 1.98831,-1.98831 l 0,-80.85794 q 0,-1.98831 -1.98831,-1.98831 l -9.27878,0 q -1.98831,0 -1.98831,-1.98831 0,-1.98831 1.98831,-1.98831 l 13.2554,0 q 1.98831,0 1.98831,1.98831 l 0,33.93382 q 0,1.32554 0.53021,1.85576 0.53022,0.53022 1.59065,-0.53022 10.73687,-12.06241 23.3295,-12.06241 12.59263,0 19.35288,6.89281 6.89281,6.76025 6.89281,19.61799 l 0,35.12681 q 0,1.98831 1.98831,1.98831 l 9.27878,0 q 1.98831,0 1.98831,1.98831 0,1.9883 -1.98831,1.9883 l -25.18526,0 q -1.98831,0 -1.98831,-1.9883 0,-1.98831 1.98831,-1.98831 l 7.95324,0 q 1.98831,0 1.98831,-1.98831 l 0,-35.12681 q 0,-11.26709 -5.83237,-16.83436 -5.83238,-5.69982 -15.90648,-5.69982 -10.0741,0 -19.08778,9.01367 -3.84406,3.97662 -6.8928,8.88112 l 0,39.7662 q 0,1.98831 1.98831,1.98831 l 7.95324,0 q 1.98831,0 1.98831,1.98831 0,1.9883 -1.98831,1.9883 l -25.18526,0 q -1.98831,0 -1.98831,-1.9883 0,-1.98831 1.98831,-1.98831 z"
           style="font-style:normal;font-variant:normal;font-weight:normal;font-stretch:normal;font-family:'Nixie One';-inkscape-font-specification:'Nixie One'"
           id="path4144" />
        <path
           d="m 352.31826,-270.70184 q 2.12087,-1.59065 3.1813,-2.65108 1.19299,-1.06044 1.85576,-0.66277 0.66277,0.2651 1.59064,1.45809 1.06044,1.06043 -0.53021,2.38597 -4.77195,4.10918 -11.00198,7.15792 -6.23004,2.91618 -15.90648,2.91618 -14.05072,0 -22.66673,-9.67644 -8.48346,-9.67644 -8.48346,-24.78759 0,-15.11116 8.48346,-24.7876 8.61601,-9.67644 22.40162,-9.67644 13.91817,0 22.66673,8.74857 8.74856,8.74856 8.74856,21.07608 l 0,1.98831 q 0,3.97662 -3.97661,3.97662 l -52.22627,0 q -2.25342,0 -1.98831,1.98831 0.79532,11.53219 7.82068,19.35288 7.15792,7.82069 19.48544,7.82069 12.46007,0 20.54586,-6.6277 z m -47.71943,-28.10145 q 0,1.59065 1.85576,1.59065 l 50.23796,0 q 1.98831,0 1.98831,-1.98831 0,-10.60432 -7.82069,-18.1599 -7.68813,-7.68813 -19.61799,-7.68813 -11.7973,0 -19.22033,8.3509 -7.42302,8.3509 -7.42302,17.89479 z"
           style="font-style:normal;font-variant:normal;font-weight:normal;font-stretch:normal;font-family:'Nixie One';-inkscape-font-specification:'Nixie One'"
           id="path4146" />
        <path
           d="m 429.65109,-311.13081 q -10.73687,-13.91817 -25.18526,-13.91817 -10.73687,0 -18.02734,8.48346 -7.15792,8.61601 -7.15792,22.26907 0,13.65306 7.55558,22.00396 7.55558,8.21835 19.8831,8.21835 12.19497,0 20.41331,-6.6277 2.12087,-1.59065 3.31385,-2.65108 1.19299,-1.06044 1.85576,-0.66277 0.66277,0.2651 1.32554,1.06043 0.66277,0.79532 0.66277,1.45809 0,0.53022 -1.19299,1.7232 -4.37428,3.84407 -10.73687,6.76026 -6.23004,2.91618 -15.90648,2.91618 -14.05072,0 -22.66673,-9.54388 -8.48346,-9.67644 -8.48346,-24.92015 0,-15.24371 8.35091,-24.7876 8.3509,-9.67644 21.07608,-9.67644 12.85774,0 22.79928,9.94155 2.12087,1.85576 2.12087,-1.32554 l 0,-5.30216 q 0,-1.98831 1.98831,-1.98831 1.98831,0 1.98831,1.98831 l 0,21.20864 q 0,1.98831 -1.98831,1.98831 -1.98831,0 -1.98831,-1.98831 l 0,-6.6277 z"
           style="font-style:normal;font-variant:normal;font-weight:normal;font-stretch:normal;font-family:'Nixie One';-inkscape-font-specification:'Nixie One'"
           id="path4148" />
        <path
           d="m 445.7999,-265.39968 9.27877,0 q 1.98831,0 1.98831,-1.98831 l 0,-80.85794 q 0,-1.98831 -1.98831,-1.98831 l -9.27877,0 q -1.98831,0 -1.98831,-1.98831 0,-1.98831 1.98831,-1.98831 l 13.25539,0 q 1.98831,0 1.98831,1.98831 l 0,65.21657 31.81296,-34.72915 q 0.79532,-0.66277 0.53022,-1.32554 -0.13256,-0.66277 -1.19299,-0.66277 l -7.42302,0 q -1.98831,0 -1.98831,-1.98831 0,-1.98831 1.98831,-1.98831 l 25.98058,0 q 1.98831,0 1.98831,1.98831 0,1.98831 -1.98831,1.98831 l -8.48346,0 q -1.45809,0 -3.4464,1.98831 l -19.8831,21.6063 23.85972,32.74084 q 1.7232,1.98831 3.31385,1.98831 l 8.61601,0 q 1.98831,0 1.98831,1.98831 0,1.9883 -1.98831,1.9883 l -25.18526,0 q -1.98831,0 -1.98831,-1.9883 0,-1.98831 1.98831,-1.98831 l 7.29047,0 q 2.38597,0 0.66277,-1.98831 l -21.47375,-29.55954 -14.9786,16.43669 0,13.12285 q 0,1.98831 1.98831,1.98831 l 7.95324,0 q 1.98831,0 1.98831,1.98831 0,1.9883 -1.98831,1.9883 l -25.18525,0 q -1.98831,0 -1.98831,-1.9883 0,-1.98831 1.98831,-1.98831 z"
           style="font-style:normal;font-variant:normal;font-weight:normal;font-stretch:normal;font-family:'Nixie One';-inkscape-font-specification:'Nixie One'"
           id="path4150" />
        <path
           d="m 524.94498,-265.39968 9.27878,0 q 1.9883,0 1.9883,-1.98831 l 0,-54.34714 q 0,-1.98831 -1.9883,-1.98831 l -9.27878,0 q -1.98831,0 -1.98831,-1.98831 0,-1.98831 1.98831,-1.98831 l 13.25539,0 q 1.98831,0 1.98831,1.98831 l 0,7.42302 q 0,3.44641 2.12087,1.32554 10.33921,-12.06241 20.41331,-12.06241 7.68813,0 13.38795,4.37428 5.69983,4.37429 7.95324,12.59263 2.65108,-4.63939 6.3626,-8.48345 8.21834,-8.48346 17.76223,-8.48346 9.54389,0 15.77392,7.02536 6.36259,6.89281 6.36259,19.48544 l 0,35.12681 q 0,1.98831 1.98831,1.98831 l 9.27878,0 q 1.98831,0 1.98831,1.98831 0,1.9883 -1.98831,1.9883 l -25.18525,0 q -1.98831,0 -1.98831,-1.9883 0,-1.98831 1.98831,-1.98831 l 7.95324,0 q 1.98831,0 1.98831,-1.98831 l 0,-35.12681 q 0,-10.86943 -5.30216,-16.7018 -5.30216,-5.83238 -13.38796,-5.83238 -8.08579,0 -16.30414,9.27878 -3.71151,4.24173 -6.36259,9.27878 0.26511,2.91619 0.26511,3.97662 l 0,35.12681 q 0,1.98831 1.98831,1.98831 l 7.95324,0 q 1.98831,0 1.98831,1.98831 0,1.9883 -1.98831,1.9883 l -23.85972,0 q -1.98831,0 -1.98831,-1.9883 0,-1.98831 1.98831,-1.98831 l 7.95324,0 q 1.98831,0 1.98831,-1.98831 l 0,-35.12681 q 0,-10.86943 -5.30216,-16.7018 -5.30216,-5.83238 -13.38795,-5.83238 -7.95324,0 -15.90648,9.01367 -3.4464,3.84407 -6.49515,8.88112 l 0,39.7662 q 0,1.98831 1.98831,1.98831 l 7.95324,0 q 1.98831,0 1.98831,1.98831 0,1.9883 -1.98831,1.9883 l -25.18525,0 q -1.98831,0 -1.98831,-1.9883 0,-1.98831 1.98831,-1.98831 z"
           style="fill:#ffffff;fill-opacity:1"
           id="path4152" />
        <path
           d="m 703.37921,-270.70184 q 2.12086,-1.59065 3.18129,-2.65108 1.19299,-1.06044 1.85576,-0.66277 0.66277,0.2651 1.59065,1.45809 1.06043,1.06043 -0.53022,2.38597 -4.77194,4.10918 -11.00198,7.15792 -6.23004,2.91618 -15.90648,2.91618 -14.05072,0 -22.66673,-9.67644 -8.48345,-9.67644 -8.48345,-24.78759 0,-15.11116 8.48345,-24.7876 8.61601,-9.67644 22.40162,-9.67644 13.91817,0 22.66674,8.74857 8.74856,8.74856 8.74856,21.07608 l 0,1.98831 q 0,3.97662 -3.97662,3.97662 l -52.22627,0 q -2.25342,0 -1.98831,1.98831 0.79532,11.53219 7.82068,19.35288 7.15792,7.82069 19.48544,7.82069 12.46007,0 20.54587,-6.6277 z m -47.71944,-28.10145 q 0,1.59065 1.85576,1.59065 l 50.23796,0 q 1.98831,0 1.98831,-1.98831 0,-10.60432 -7.82069,-18.1599 -7.68813,-7.68813 -19.61799,-7.68813 -11.7973,0 -19.22032,8.3509 -7.42303,8.3509 -7.42303,17.89479 z"
           style="fill:#ffffff;fill-opacity:1"
           id="path4154" />
        <path
           d="m 735.37857,-269.64141 q -9.01367,-9.54389 -9.01367,-24.92015 0,-15.37626 9.01367,-24.92015 9.01367,-9.54389 23.46205,-9.54389 14.44839,0 23.46206,9.54389 9.01367,9.54389 9.01367,24.92015 0,15.37626 -9.01367,24.92015 -9.01367,9.54388 -23.46206,9.54388 -14.44838,0 -23.46205,-9.54388 z m 23.46205,-55.40757 q -12.85773,0 -20.67842,8.3509 -7.82068,8.3509 -7.82068,22.26907 0,13.78562 7.68813,22.13652 7.82068,8.21835 20.81097,8.21835 12.9903,0 20.67843,-8.21835 7.82068,-8.3509 7.82068,-22.13652 0,-13.91817 -7.82068,-22.26907 -7.82069,-8.3509 -20.67843,-8.3509 z"
           style="font-style:normal;font-variant:normal;font-weight:normal;font-stretch:normal;font-family:'Nixie One';-inkscape-font-specification:'Nixie One'"
           id="path4156" />
        <path
           d="m 800.97829,-327.70006 13.2554,0 q 1.98831,0 1.98831,1.98831 l 0,39.10343 q 0,11.26709 5.83238,16.96691 5.83237,5.56727 15.90648,5.56727 10.0741,0 18.95522,-8.88112 3.97662,-4.10918 7.02536,-9.01367 l 0,-39.7662 q 0,-1.98831 -1.98831,-1.98831 l -9.27878,0 q -1.98831,0 -1.98831,-1.98831 0,-1.98831 1.98831,-1.98831 l 13.2554,0 q 1.98831,0 1.98831,1.98831 l 0,58.32376 q 0,1.98831 1.98831,1.98831 l 9.27878,0 q 1.98831,0 1.98831,1.98831 0,1.9883 -1.98831,1.9883 l -13.2554,0 q -1.98831,0 -1.98831,-1.9883 l 0,-7.42303 q 0,-1.32554 -0.53022,-1.85575 -0.53021,-0.53022 -1.59065,0.53021 -10.73687,12.06241 -23.3295,12.06241 -12.59263,0 -19.48543,-6.76025 -6.76026,-6.89281 -6.76026,-19.75054 l 0,-35.12681 q 0,-1.98831 -1.98831,-1.98831 l -9.27878,0 q -1.98831,0 -1.98831,-1.98831 0,-1.98831 1.98831,-1.98831 z"
           style="font-style:normal;font-variant:normal;font-weight:normal;font-stretch:normal;font-family:'Nixie One';-inkscape-font-specification:'Nixie One'"
           id="path4158" />
        <path
           d="m 932.41597,-270.70184 q 1.32554,-1.32554 2.38597,-0.26511 1.06043,1.06043 1.06043,1.7232 0.13255,0.66277 -0.92788,1.7232 -3.18129,3.1813 -6.36259,4.77194 -8.21835,2.78364 -9.41133,2.65108 -1.19299,0 -1.32554,0 -9.27878,0 -14.58094,-5.96492 -5.30216,-5.96493 -5.30216,-17.23202 l 0,-38.44066 q 0,-1.98831 -1.98831,-1.98831 l -9.27878,0 q -1.98831,0 -1.98831,-1.98831 0,-1.98831 1.98831,-1.98831 l 9.27878,0 q 1.98831,0 1.98831,-1.98831 l 0,-22.53418 q 0,-1.98831 1.98831,-1.98831 1.98831,0 1.98831,1.98831 l 0,22.53418 q 0,1.98831 1.98831,1.98831 l 22.53418,0 q 1.98831,0 1.98831,1.98831 0,1.98831 -1.98831,1.98831 l -22.53418,0 q -1.98831,0 -1.98831,1.98831 l 0,38.44066 q 0,9.54388 4.24173,14.44838 4.24172,4.77195 11.66475,4.77195 7.55557,0 14.58094,-6.6277 z"
           style="font-style:normal;font-variant:normal;font-weight:normal;font-stretch:normal;font-family:'Nixie One';-inkscape-font-specification:'Nixie One'"
           id="path4160" />
      </g>
    </g>
  </g>
</svg>
