<?xml version="1.0" encoding="UTF-8" standalone="no"?>
<!-- Generator: Adobe Illustrator 19.0.0, SVG Export Plug-In . SVG Version: 6.00 Build 0)  -->

<svg
   xmlns:dc="http://purl.org/dc/elements/1.1/"
   xmlns:cc="http://creativecommons.org/ns#"
   xmlns:rdf="http://www.w3.org/1999/02/22-rdf-syntax-ns#"
   xmlns:svg="http://www.w3.org/2000/svg"
   xmlns="http://www.w3.org/2000/svg"
   xmlns:sodipodi="http://sodipodi.sourceforge.net/DTD/sodipodi-0.dtd"
   xmlns:inkscape="http://www.inkscape.org/namespaces/inkscape"
   version="1.1"
   id="Capa_1"
   x="0px"
   y="0px"
   viewBox="0 0 52 52"
   xml:space="preserve"
   inkscape:version="0.91 r13725"
   sodipodi:docname="manage.svg"
   width="52"
   height="52"><metadata
     id="metadata49"><rdf:RDF><cc:Work
         rdf:about=""><dc:format>image/svg+xml</dc:format><dc:type
           rdf:resource="http://purl.org/dc/dcmitype/StillImage" /><dc:title></dc:title></cc:Work></rdf:RDF></metadata><defs
     id="defs47" /><sodipodi:namedview
     pagecolor="#ffffff"
     bordercolor="#666666"
     borderopacity="1"
     objecttolerance="10"
     gridtolerance="10"
     guidetolerance="10"
     inkscape:pageopacity="0"
     inkscape:pageshadow="2"
     inkscape:window-width="1500"
     inkscape:window-height="937"
     id="namedview45"
     showgrid="false"
     inkscape:zoom="3.5757575"
     inkscape:cx="8.3829247"
     inkscape:cy="34.085815"
     inkscape:window-x="-8"
     inkscape:window-y="-8"
     inkscape:window-maximized="1"
     inkscape:current-layer="Capa_1" /><g
     id="g15"
     transform="translate(0,19)" /><g
     id="g17"
     transform="translate(0,19)" /><g
     id="g19"
     transform="translate(0,19)" /><g
     id="g21"
     transform="translate(0,19)" /><g
     id="g23"
     transform="translate(0,19)" /><g
     id="g25"
     transform="translate(0,19)" /><g
     id="g27"
     transform="translate(0,19)" /><g
     id="g29"
     transform="translate(0,19)" /><g
     id="g31"
     transform="translate(0,19)" /><g
     id="g33"
     transform="translate(0,19)" /><g
     id="g35"
     transform="translate(0,19)" /><g
     id="g37"
     transform="translate(0,19)" /><g
     id="g39"
     transform="translate(0,19)" /><g
     id="g41"
     transform="translate(0,19)" /><g
     id="g43"
     transform="translate(0,19)" /><g
     id="g4193"
     transform="matrix(0.89336906,0,0,0.89336906,0.98566626,0.98566626)"><g
       id="g4149"><path
         id="path4151"
         d="m 8,14 c 3.519,0 6.432,-2.614 6.92,-6 L 54,8 C 54.553,8 55,7.553 55,7 55,6.447 54.553,6 54,6 L 14.92,6 C 14.432,2.614 11.519,0 8,0 4.14,0 1,3.141 1,7 c 0,3.859 3.14,7 7,7 z M 8,2 c 2.757,0 5,2.243 5,5 0,2.757 -2.243,5 -5,5 C 5.243,12 3,9.757 3,7 3,4.243 5.243,2 8,2 Z"
         inkscape:connector-curvature="0" /><path
         id="path4153"
         d="m 48,42 c -3.519,0 -6.432,2.614 -6.92,6 L 2,48 c -0.552,0 -1,0.447 -1,1 0,0.553 0.448,1 1,1 l 39.08,0 c 0.488,3.386 3.401,6 6.92,6 3.859,0 7,-3.141 7,-7 0,-3.859 -3.141,-7 -7,-7 z m 0,12 c -2.757,0 -5,-2.243 -5,-5 0,-2.757 2.243,-5 5,-5 2.757,0 5,2.243 5,5 0,2.757 -2.243,5 -5,5 z"
         inkscape:connector-curvature="0" /><path
         id="path4155"
         d="m 54,27 -18.632,0 c -0.396,-3.602 -3.455,-6.414 -7.161,-6.414 -3.706,0 -6.765,2.813 -7.161,6.414 L 2,27 c -0.552,0 -1,0.447 -1,1 0,0.553 0.448,1 1,1 l 19.109,0 c 0.577,3.4 3.536,6 7.098,6 3.562,0 6.52,-2.6 7.097,-6 L 54,29 c 0.553,0 1,-0.447 1,-1 0,-0.553 -0.447,-1 -1,-1 z M 28.207,33 C 25.336,33 23,30.664 23,27.793 c 0,-2.871 2.336,-5.207 5.207,-5.207 2.871,0 5.207,2.336 5.207,5.207 0,2.871 -2.336,5.207 -5.207,5.207 z"
         inkscape:connector-curvature="0" /></g><g
       id="g4157" /><g
       id="g4159" /><g
       id="g4161" /><g
       id="g4163" /><g
       id="g4165" /><g
       id="g4167" /><g
       id="g4169" /><g
       id="g4171" /><g
       id="g4173" /><g
       id="g4175" /><g
       id="g4177" /><g
       id="g4179" /><g
       id="g4181" /><g
       id="g4183" /><g
       id="g4185" /></g></svg>