<?xml version="1.0" encoding="iso-8859-1"?>
<!-- Generator: Adobe Illustrator 19.0.0, SVG Export Plug-In . SVG Version: 6.00 Build 0)  -->
<svg version="1.1" id="Layer_1" xmlns="http://www.w3.org/2000/svg" xmlns:xlink="http://www.w3.org/1999/xlink" x="0px" y="0px"
	 viewBox="0 0 488 488" style="enable-background:new 0 0 488 488;" xml:space="preserve">
<g>
	<g>
		<path d="M452.15,381.3c-55.2-45.4-114.9-76-129-83v-83.1c11.5-8.9,18.2-22.5,18.2-37.1V87.6c0-48.3-39.3-87.6-87.6-87.6h-19.5
			c-48.3,0-87.6,39.3-87.6,87.6v90.6c0,14.6,6.8,28.2,18.2,37.1v83.1c-14.1,7-73.8,37.6-129,83c-11.5,9.5-18.2,23.5-18.2,38.6v62
			c0.2,3.3,2.9,6,6.2,6s6-2.7,6-6v-62.1c0-11.4,5-22.1,13.8-29.3c55.8-45.8,116.2-76.3,127.8-82c3.5-1.7,5.6-5.2,5.6-9v-87.4
			c0-2-1-3.9-2.7-5c-9.7-6.5-15.6-17.3-15.6-29V87.6c0-41.7,33.9-75.6,75.6-75.6h19.5c41.7,0,75.6,33.9,75.6,75.6v90.6
			c0,11.7-5.8,22.5-15.6,29c-1.7,1.1-2.7,3-2.7,5v87.4c0,3.9,2.2,7.3,5.6,9c11.6,5.7,72,36.2,127.8,82c8.8,7.2,13.8,17.9,13.8,29.3
			V482c0,3.3,2.7,6,6,6s6-2.7,6-6v-62.1C470.35,404.9,463.75,390.8,452.15,381.3z"/>
	</g>
</g>
<g>
</g>
<g>
</g>
<g>
</g>
<g>
</g>
<g>
</g>
<g>
</g>
<g>
</g>
<g>
</g>
<g>
</g>
<g>
</g>
<g>
</g>
<g>
</g>
<g>
</g>
<g>
</g>
<g>
</g>
</svg>
