<?xml version="1.0" encoding="UTF-8" standalone="no"?>
<!-- Generator: Adobe Illustrator 19.0.0, SVG Export Plug-In . SVG Version: 6.00 Build 0)  -->

<svg
   xmlns:dc="http://purl.org/dc/elements/1.1/"
   xmlns:cc="http://creativecommons.org/ns#"
   xmlns:rdf="http://www.w3.org/1999/02/22-rdf-syntax-ns#"
   xmlns:svg="http://www.w3.org/2000/svg"
   xmlns="http://www.w3.org/2000/svg"
   xmlns:sodipodi="http://sodipodi.sourceforge.net/DTD/sodipodi-0.dtd"
   xmlns:inkscape="http://www.inkscape.org/namespaces/inkscape"
   version="1.1"
   id="Layer_1"
   x="0px"
   y="0px"
   viewBox="0 0 488 488"
   style="enable-background:new 0 0 488 488;"
   xml:space="preserve"
   inkscape:version="0.91 r13725"
   sodipodi:docname="profile.svg"><metadata
     id="metadata43"><rdf:RDF><cc:Work
         rdf:about=""><dc:format>image/svg+xml</dc:format><dc:type
           rdf:resource="http://purl.org/dc/dcmitype/StillImage" /></cc:Work></rdf:RDF></metadata><defs
     id="defs41" /><sodipodi:namedview
     pagecolor="#ffffff"
     bordercolor="#666666"
     borderopacity="1"
     objecttolerance="10"
     gridtolerance="10"
     guidetolerance="10"
     inkscape:pageopacity="0"
     inkscape:pageshadow="2"
     inkscape:window-width="1103"
     inkscape:window-height="758"
     id="namedview39"
     showgrid="false"
     inkscape:zoom="0.48360656"
     inkscape:cx="244"
     inkscape:cy="244"
     inkscape:window-x="0"
     inkscape:window-y="0"
     inkscape:window-maximized="0"
     inkscape:current-layer="g5" /><g
     id="g3"><g
       id="g5"><path
         d="m 231.9668,-1.9707031 c -37.81842,0.3851079 -73.22548,27.6076841 -83.5733,63.9366901 -6.5089,21.603949 -2.72686,44.467213 -3.74311,66.633623 0.41977,18.8778 -0.79721,37.83976 0.51563,56.67383 1.72568,12.06378 8.19887,23.34292 17.68359,30.98242 0,26.9694 0,53.9388 0,80.9082 -46.60866,23.86698 -91.440387,51.8113 -131.519532,85.60938 C 19.09837,394.2509 14.25723,411.59998 15.650391,428 c 0.340086,18.76608 -0.655111,37.68688 0.451171,56.36523 1.96596,7.37491 13.611556,7.4117 15.41211,-0.0859 0.859603,-21.01921 0.05614,-42.20318 0.335937,-63.2793 -0.770676,-13.87057 7.819533,-26.44858 19.069853,-33.70438 38.261972,-30.4964 80.259908,-55.99328 123.635228,-78.30343 7.76783,-6.45828 3.32227,-17.81876 4.49609,-26.39258 -0.19955,-24.12944 0.38202,-48.32646 -0.25976,-72.41797 -1.95022,-5.91777 -9.30234,-7.52984 -12.02344,-13.10937 -9.56081,-13.01531 -4.93941,-30.01826 -6.01758,-44.9043 0.38426,-24.6267 -0.77498,-49.32059 0.58789,-73.906251 3.76679,-34.364096 34.65556,-63.089294 69.25391,-64.167969 19.67027,-0.400858 40.70489,-1.557759 58.33593,8.810547 25.02145,13.253624 40.45055,41.635648 38.52149,69.71875 -0.2918,30.221223 0.56612,60.502793 -0.39592,90.689363 -1.2925,9.87465 -7.83587,18.09897 -15.85799,23.54697 -4.52609,6.03238 -0.8582,14.45127 -2.04492,21.33984 0.21376,24.66581 -0.41236,49.39227 0.28516,74.02344 2.24752,9.44528 13.63385,10.53639 20.4414,15.34765 40.98656,22.04828 80.73564,47.11763 116.34375,77.26758 9.69263,9.27271 11.06204,23.43006 10.12891,36.08789 0.30496,17.76488 -0.55827,35.64651 0.33594,53.35352 1.76592,7.49523 13.5633,7.4964 15.32812,0 0.8596,-21.01921 0.0562,-42.20318 0.33594,-63.2793 0.66745,-18.13663 -9.29281,-35.41798 -24.13867,-45.47461 -38.11248,-30.37478 -79.63591,-56.38869 -123.06055,-78.46094 0.2374,-27.00477 -0.47452,-54.46522 0.35547,-81.18554 13.33434,-10.55239 19.33806,-28.12675 17.84375,-44.7793 -0.34904,-30.87512 0.67468,-61.79799 -0.46289,-92.646485 C 339.5511,40.451495 309.20539,6.9795976 271.75781,-0.18164062 258.67983,-2.9861457 245.22678,-1.7490006 231.9668,-1.9707031 Z"
         id="path7"
         inkscape:connector-curvature="0" /></g></g><g
     id="g9" /><g
     id="g11" /><g
     id="g13" /><g
     id="g15" /><g
     id="g17" /><g
     id="g19" /><g
     id="g21" /><g
     id="g23" /><g
     id="g25" /><g
     id="g27" /><g
     id="g29" /><g
     id="g31" /><g
     id="g33" /><g
     id="g35" /><g
     id="g37" /></svg>