<?xml version="1.0" encoding="UTF-8" standalone="no"?>
<!-- Generator: Adobe Illustrator 19.0.0, SVG Export Plug-In . SVG Version: 6.00 Build 0)  -->

<svg
   xmlns:dc="http://purl.org/dc/elements/1.1/"
   xmlns:cc="http://creativecommons.org/ns#"
   xmlns:rdf="http://www.w3.org/1999/02/22-rdf-syntax-ns#"
   xmlns:svg="http://www.w3.org/2000/svg"
   xmlns="http://www.w3.org/2000/svg"
   xmlns:sodipodi="http://sodipodi.sourceforge.net/DTD/sodipodi-0.dtd"
   xmlns:inkscape="http://www.inkscape.org/namespaces/inkscape"
   version="1.1"
   id="Capa_1"
   x="0px"
   y="0px"
   viewBox="0 0 52.966 52.966"
   style="enable-background:new 0 0 52.966 52.966;"
   xml:space="preserve"
   inkscape:version="0.91 r13725"
   sodipodi:docname="search.svg"><metadata
     id="metadata39"><rdf:RDF><cc:Work
         rdf:about=""><dc:format>image/svg+xml</dc:format><dc:type
           rdf:resource="http://purl.org/dc/dcmitype/StillImage" /></cc:Work></rdf:RDF></metadata><defs
     id="defs37" /><sodipodi:namedview
     pagecolor="#ffffff"
     bordercolor="#666666"
     borderopacity="1"
     objecttolerance="10"
     gridtolerance="10"
     guidetolerance="10"
     inkscape:pageopacity="0"
     inkscape:pageshadow="2"
     inkscape:window-width="660"
     inkscape:window-height="480"
     id="namedview35"
     showgrid="false"
     inkscape:zoom="4.4556886"
     inkscape:cx="26.483"
     inkscape:cy="26.483"
     inkscape:window-x="0"
     inkscape:window-y="0"
     inkscape:window-maximized="0"
     inkscape:current-layer="Capa_1" /><path
     d="M 50.20783,49.802407 36.230296,35.26611 c 3.565169,-3.575517 5.773881,-8.504669 5.773881,-13.940847 0,-10.893051 -8.861186,-19.7542376 -19.754237,-19.7542376 -10.893051,0 -19.7542373,8.8611866 -19.7542373,19.7542376 0,10.893051 8.8611863,19.754237 19.7542373,19.754237 4.781466,0 9.169729,-1.709212 12.590034,-4.545356 l 14.011398,14.572042 c 0.184373,0.192839 0.430831,0.288789 0.678229,0.288789 0.23517,0 0.469398,-0.08748 0.65189,-0.26245 0.37439,-0.360279 0.385678,-0.955728 0.02634,-1.330118 z M 22.24994,39.198144 c -9.855483,0 -17.8728813,-8.017398 -17.8728813,-17.872881 0,-9.855483 8.0173983,-17.8728817 17.8728813,-17.8728817 9.855483,0 17.872881,8.0173987 17.872881,17.8728817 0,9.855483 -8.018339,17.872881 -17.872881,17.872881 z"
     id="path3"
     inkscape:connector-curvature="0" /><g
     id="g5" /><g
     id="g7" /><g
     id="g9" /><g
     id="g11" /><g
     id="g13" /><g
     id="g15" /><g
     id="g17" /><g
     id="g19" /><g
     id="g21" /><g
     id="g23" /><g
     id="g25" /><g
     id="g27" /><g
     id="g29" /><g
     id="g31" /><g
     id="g33" /></svg>