<?xml version="1.0" standalone="no"?>
<!DOCTYPE svg PUBLIC "-//W3C//DTD SVG 20010904//EN"
 "http://www.w3.org/TR/2001/REC-SVG-20010904/DTD/svg10.dtd">
<svg version="1.0" xmlns="http://www.w3.org/2000/svg"
 width="5455.000000pt" height="5455.000000pt" viewBox="0 0 5455.000000 5455.000000"
 preserveAspectRatio="xMidYMid meet">
<metadata>
Created by potrace 1.11, written by Peter Selinger 2001-2013
</metadata>
<g transform="translate(0.000000,5455.000000) scale(0.100000,-0.100000)"
fill="#000000" stroke="none">
<path d="M26685 54543 c-1654 -41 -3142 -202 -4706 -509 -3996 -784 -7785
-2473 -11054 -4927 -1983 -1489 -3748 -3230 -5255 -5182 -3173 -4111 -5100
-9028 -5559 -14185 -79 -883 -105 -1501 -105 -2465 0 -832 16 -1306 69 -2035
165 -2239 608 -4455 1315 -6580 822 -2471 1996 -4812 3489 -6955 2066 -2968
4714 -5508 7766 -7452 3739 -2381 8008 -3813 12410 -4162 848 -67 1327 -86
2235 -85 810 0 1311 17 2020 69 2596 192 5148 753 7570 1665 4070 1533 7722
4025 10650 7271 1732 1918 3185 4075 4307 6394 1561 3225 2463 6706 2667
10300 33 572 40 860 40 1570 0 710 -7 998 -40 1570 -163 2875 -773 5681 -1811
8340 -1630 4171 -4257 7872 -7669 10799 -2415 2073 -5182 3713 -8144 4826
-2667 1002 -5442 1573 -8315 1710 -530 25 -1382 36 -1880 23z m895 -6723 c703
-64 1352 -337 1967 -828 182 -145 555 -511 704 -692 768 -928 1327 -2120 1699
-3622 263 -1063 407 -2144 468 -3508 l7 -155 3740 -5 3740 -5 57 -23 c86 -35
174 -98 218 -156 70 -93 2751 -4746 2777 -4820 20 -56 24 -84 22 -160 -4 -150
-2 -312 117 -10421 90 -7570 113 -9744 104 -9795 -32 -184 -180 -345 -359
-392 -62 -16 -941 -17 -15451 -17 -13607 -1 -15392 1 -15443 14 -172 45 -311
181 -361 355 -15 50 -16 933 -14 10015 l3 9960 90 280 91 280 1349 2339 c1122
1944 1360 2350 1407 2401 61 66 154 123 238 145 35 10 853 12 3711 11 l3667
-2 6 138 c53 1119 151 1965 332 2858 538 2657 1707 4595 3264 5413 407 214
859 350 1295 391 132 12 423 12 555 1z"/>
<path d="M27050 46815 c-473 -57 -937 -266 -1378 -618 -152 -121 -462 -427
-594 -587 -1072 -1296 -1734 -3345 -1913 -5924 -21 -306 -22 -299 29 -181 784
1810 1979 3006 3335 3339 753 185 1505 104 2226 -238 1036 -493 1955 -1551
2571 -2960 38 -87 70 -151 72 -142 4 20 -23 401 -48 681 -135 1469 -440 2779
-901 3862 -92 216 -313 653 -426 843 -488 819 -1040 1376 -1678 1690 -415 205
-867 287 -1295 235z"/>
<path d="M27065 41928 c-577 -65 -1146 -359 -1659 -858 -418 -407 -747 -865
-1067 -1485 -89 -172 -235 -486 -253 -542 l-7 -23 3210 0 c2129 0 3211 3 3211
10 0 20 -145 340 -243 535 -299 599 -610 1051 -997 1449 -282 291 -578 510
-905 671 -263 130 -514 207 -784 241 -126 15 -379 17 -506 2z"/>
<path d="M15162 38017 c-8 -9 -488 -837 -1066 -1839 l-1053 -1823 4545 -3
c2500 -1 4546 -1 4547 0 1 2 10 134 19 293 68 1173 230 2251 485 3228 l38 147
-3557 0 c-1956 0 -3644 3 -3751 7 -172 5 -196 4 -207 -10z"/>
<path d="M23717 38013 c-10 -17 -101 -350 -152 -558 -183 -744 -307 -1520
-380 -2390 -14 -169 -45 -643 -45 -692 l0 -23 4136 0 4137 0 -7 153 c-28 632
-113 1422 -217 2037 -72 426 -234 1150 -316 1415 l-19 60 -3566 3 c-1962 1
-3569 -1 -3571 -5z"/>
<path d="M31900 38001 c0 -5 29 -127 65 -272 233 -953 398 -2154 441 -3211 l7
-168 4603 0 4603 0 -97 168 c-53 92 -529 915 -1057 1830 l-959 1662 -3803 0
c-2169 0 -3803 -4 -3803 -9z"/>
<path d="M12570 23786 l0 -9566 14815 0 14815 0 0 173 c0 94 -50 4341 -110
9437 -60 5096 -110 9313 -110 9371 l0 107 -2512 6 c-1382 3 -6601 11 -11598
16 -4997 5 -10483 12 -12192 16 l-3108 6 0 -9566z m21460 4599 l375 -375
-4455 -4455 -4455 -4455 -2517 2517 -2518 2518 377 377 378 378 2140 -2140
2140 -2140 4075 4075 c2241 2241 4077 4075 4080 4075 3 0 174 -169 380 -375z"/>
</g>
</svg>
